<svg xmlns="http://www.w3.org/2000/svg" viewBox="0 0 800 600" width="800" height="600">
  <defs>
    <radialGradient id="bg-nitro-x" cx="50%" cy="40%" r="70%">
      <stop offset="0%" stop-color="#251837"/>
      <stop offset="100%" stop-color="#0a0a0c"/>
    </radialGradient>
    <radialGradient id="glow-nitro-x" cx="50%" cy="42%" r="35%">
      <stop offset="0%" stop-color="#a855f7" stop-opacity="0.3"/>
      <stop offset="100%" stop-color="#a855f7" stop-opacity="0"/>
    </radialGradient>
    <linearGradient id="badge-nitro-x" x1="0" y1="0" x2="0" y2="1">
      <stop offset="0" stop-color="#a855f7"/>
      <stop offset="1" stop-color="#7e22ce"/>
    </linearGradient>
  </defs>
  <rect width="800" height="600" fill="url(#bg-nitro-x)"/>
  <rect width="800" height="600" fill="url(#glow-nitro-x)"/>

  <!-- Rings decorativos -->
  <g fill="none" stroke="#a855f7" opacity="0.18">
    <circle cx="400" cy="240" r="130" stroke-width="1"/>
    <circle cx="400" cy="240" r="180" stroke-width="1" stroke-opacity="0.6"/>
    <circle cx="400" cy="240" r="230" stroke-width="1" stroke-opacity="0.3"/>
  </g>

  <!-- App-icon container -->
  <g transform="translate(320 160)">
    <rect width="160" height="160" rx="36" fill="url(#badge-nitro-x)"/>
    <rect width="160" height="160" rx="36" fill="#ffffff" fill-opacity="0.08"/>
    <rect x="0.5" y="0.5" width="159" height="159" rx="35.5" fill="none" stroke="#ffffff" stroke-opacity="0.15"/>

    <g transform="translate(20 33) scale(0.945)" fill="#ffffff">
      <path d="M107.7,8.07A105.15,105.15,0,0,0,81.47,0a72.06,72.06,0,0,0-3.36,6.83A97.68,97.68,0,0,0,49,6.83,72.37,72.37,0,0,0,45.64,0,105.89,105.89,0,0,0,19.39,8.09C2.79,32.65-1.71,56.6.54,80.21h0A105.73,105.73,0,0,0,32.71,96.36,77.7,77.7,0,0,0,39.6,85.25a68.42,68.42,0,0,1-10.85-5.18c.91-.66,1.8-1.34,2.66-2a75.57,75.57,0,0,0,64.32,0c.87.71,1.76,1.39,2.66,2a68.68,68.68,0,0,1-10.87,5.19,77,77,0,0,0,6.89,11.1A105.25,105.25,0,0,0,126.6,80.22h0C129.24,52.84,122.09,29.11,107.7,8.07ZM42.45,65.69C36.18,65.69,31,60,31,53s5-12.74,11.43-12.74S54,46,53.89,53,48.84,65.69,42.45,65.69Zm42.24,0C78.41,65.69,73.25,60,73.25,53s5-12.74,11.44-12.74S96.23,46,96.12,53,91.08,65.69,84.69,65.69Z"/>
    </g>
  </g>

  <!-- Boost diamonds -->
  <g transform="translate(400 365)">
    <g transform="translate(-32 0)">
      <path d="M 0 -16 L 16 0 L 0 16 L -16 0 Z" fill="#c084fc"/>
      <path d="M 0 -16 L 16 0 L 0 0 Z" fill="#e9d5ff"/>
    </g>
    <g transform="translate(32 0)">
      <path d="M 0 -16 L 16 0 L 0 16 L -16 0 Z" fill="#c084fc"/>
      <path d="M 0 -16 L 16 0 L 0 0 Z" fill="#e9d5ff"/>
    </g>
  </g>

  <!-- Wordmark -->
  <text x="400" y="445" text-anchor="middle" fill="#ffffff"
        font-family="system-ui, -apple-system, sans-serif"
        font-size="46" font-weight="700" letter-spacing="2">Nitro Boost</text>

  <text x="400" y="525" text-anchor="middle" fill="#c084fc" fill-opacity="0.65"
        font-family="system-ui, sans-serif"
        font-size="13" letter-spacing="3">+2 BOOSTS · 1 MÊS</text>
</svg>
